# xmcd
#
# Track frame offsets:
#	150
#	16437
#	42457
#	69846
#	109757
#	161652
#	188514
#	222831
#	247199
#	273961
#
# Disc length: 4250 seconds
#
# Revision: 1
# Processed by: cddbd v1.5.2PL0 Copyright (c) Steve Scherf et al.
# Submitted via: EasyCDDAExtractor 6.2.0.3
#
DISCID=8810980a
DTITLE=Powerblues Inc. -  Live -778
DYEAR=2011
DGENRE=Blues
TTITLE0=Crossroads
TTITLE1=White Room
TTITLE2=Good Clean Fun
TTITLE3=Mistreated
TTITLE4=Boom Boom
TTITLE5=La Grange
TTITLE6=Highway Star
TTITLE7=Come Together
TTITLE8=Sunshine Of Your Love
TTITLE9=Roadhouse Blues
EXTD=
EXTT0=
EXTT1=
EXTT2=
EXTT3=
EXTT4=
EXTT5=
EXTT6=
EXTT7=
EXTT8=
EXTT9=
PLAYORDER=
